g mesh_Pik0911_00_TicketGeneral_2
v -0.06147061 -0.024655618 4.7683715E-09
v -0.061085675 -0.025000012 4.7683715E-09
v -0.05433168 -0.025000012 4.7683715E-09
v -0.043533936 -0.025000012 4.7683715E-09
v -1.069851E-18 -0.025000002 -0.0015579307
v -0.043533936 -0.025000012 -0.0015579307
v -1.069851E-18 -0.025000002 4.7683715E-09
v 0.061085675 -0.024999995 4.7683715E-09
v 0.061085675 -0.024999995 -0.0015579307
v -0.045377057 -0.01792437 4.7683715E-09
v -0.045377057 -0.01792437 -0.0015579307
v -0.04579009 -0.017653354 -0.0015579307
v -0.04579009 -0.017653354 4.7683715E-09
v -0.045377057 -0.01792437 -0.0015579307
v -0.045377057 -0.01792437 4.7683715E-09
v -0.043778595 -0.024805667 4.7683715E-09
v -0.043778595 -0.024805667 -0.0015579307
v -0.05452524 -0.019253248 -0.0015579307
v -0.05452524 -0.019253248 4.7683715E-09
v -0.04579009 -0.017653354 4.7683715E-09
v -0.04579009 -0.017653354 -0.0015579307
v -0.061085675 -0.025000012 4.7683715E-09
v -0.05412603 -0.02476477 4.7683715E-09
v -0.05433168 -0.025000012 4.7683715E-09
v -0.06147061 -0.024655618 4.7683715E-09
v -0.054815404 -0.01965306 4.7683715E-09
v -0.06147061 -5.38709E-19 4.7683715E-09
v -0.05452524 -0.019253248 4.7683715E-09
v -0.04579009 -0.017653354 4.7683715E-09
v 6.9143567E-19 -9.689847E-18 4.7683715E-09
v -0.045377057 -0.01792437 4.7683715E-09
v -0.061085675 0.024999995 4.7683715E-09
v -0.06147061 0.024655608 4.7683715E-09
v 9.219143E-19 0.024999995 4.7683715E-09
v 0.061085675 0.024999995 4.7683715E-09
v 0.061470583 0.024655608 4.7683715E-09
v 0.061470598 -2.2604977E-17 4.7683715E-09
v 0.061085675 -0.024999995 4.7683715E-09
v 0.06147061 -0.024655608 4.7683715E-09
v -1.069851E-18 -0.025000002 4.7683715E-09
v -0.043533936 -0.025000012 4.7683715E-09
v -0.043778595 -0.024805667 4.7683715E-09
v -0.06147061 -5.38709E-19 -0.0015579307
v -0.06147061 -0.024655618 4.7683715E-09
v -0.06147061 -0.024655618 -0.0015579307
v -0.06147061 -5.38709E-19 4.7683715E-09
v -0.06147061 0.024655608 4.7683715E-09
v -0.06147061 0.024655608 -0.0015579307
v -0.05452524 -0.019253248 4.7683715E-09
v -0.05452524 -0.019253248 -0.0015579307
v -0.054815404 -0.01965306 -0.0015579307
v -0.054815404 -0.01965306 4.7683715E-09
v -0.061085675 -0.025000012 -0.0015579307
v -0.05433168 -0.025000012 -0.0015579307
v -0.05412603 -0.02476477 -0.0015579307
v -0.06147061 -0.024655618 -0.0015579307
v -0.054815404 -0.01965306 -0.0015579307
v -0.06147061 -5.38709E-19 -0.0015579307
v -0.05452524 -0.019253248 -0.0015579307
v -0.04579009 -0.017653354 -0.0015579307
v 6.9143567E-19 -9.689847E-18 -0.0015579307
v -0.045377057 -0.01792437 -0.0015579307
v -0.061085675 0.024999995 -0.0015579307
v -0.06147061 0.024655608 -0.0015579307
v 9.219143E-19 0.024999995 -0.0015579307
v 0.061085675 0.024999995 -0.0015579307
v 0.061470583 0.024655608 -0.0015579307
v 0.061470598 -2.2604977E-17 -0.0015579307
v 0.061085675 -0.024999995 -0.0015579307
v 0.06147061 -0.024655608 -0.0015579307
v -1.069851E-18 -0.025000002 -0.0015579307
v -0.043778595 -0.024805667 -0.0015579307
v -0.043533936 -0.025000012 -0.0015579307
v -0.054815404 -0.01965306 4.7683715E-09
v -0.054815404 -0.01965306 -0.0015579307
v -0.05412603 -0.02476477 -0.0015579307
v -0.05412603 -0.02476477 4.7683715E-09
v -0.05433168 -0.025000012 4.7683715E-09
v -0.05433168 -0.025000012 -0.0015579307
v -0.061085675 -0.025000012 -0.0015579307
v -0.06147061 -0.024655618 -0.0015579307
v -0.06147061 -0.024655618 4.7683715E-09
v -0.043778595 -0.024805667 -0.0015579307
v -0.043778595 -0.024805667 4.7683715E-09
v -0.043533936 -0.025000012 4.7683715E-09
v -0.043533936 -0.025000012 -0.0015579307
v -0.05412603 -0.02476477 4.7683715E-09
v -0.05412603 -0.02476477 -0.0015579307
v -0.05433168 -0.025000012 -0.0015579307
v -0.05433168 -0.025000012 4.7683715E-09
v 0.06147061 -0.024655608 4.7683715E-09
v 0.061470598 -2.2604977E-17 -0.0015579307
v 0.06147061 -0.024655608 -0.0015579307
v 0.061470598 -2.2604977E-17 4.7683715E-09
v 0.061470583 0.024655608 4.7683715E-09
v 0.061470583 0.024655608 -0.0015579307
v 0.061085675 -0.024999995 -0.0015579307
v 0.061085675 -0.024999995 4.7683715E-09
v 0.06147061 -0.024655608 4.7683715E-09
v 0.06147061 -0.024655608 -0.0015579307
v 9.219143E-19 0.024999995 -0.0015579307
v -0.061085675 0.024999995 4.7683715E-09
v -0.061085675 0.024999995 -0.0015579307
v 9.219143E-19 0.024999995 4.7683715E-09
v 0.061085675 0.024999995 4.7683715E-09
v 0.061085675 0.024999995 -0.0015579307
v -0.061085675 0.024999995 -0.0015579307
v -0.061085675 0.024999995 4.7683715E-09
v -0.06147061 0.024655608 4.7683715E-09
v -0.06147061 0.024655608 -0.0015579307
v 0.061470583 0.024655608 -0.0015579307
v 0.061470583 0.024655608 4.7683715E-09
v 0.061085675 0.024999995 4.7683715E-09
v 0.061085675 0.024999995 -0.0015579307
vt 0.018631943 0.29112893
vt 0.020045836 0.2898293
vt 0.045556977 0.2898293
vt 0.086302415 0.2898293
vt 0.25057834 0.28414255
vt 0.086302415 0.28414255
vt 0.25057834 0.2898293
vt 0.48108602 0.28982937
vt 0.48108602 0.28414255
vt 0.07462491 0.28982928
vt 0.07461989 0.28414252
vt 0.07381156 0.28414252
vt 0.07381955 0.28982928
vt 0.07461989 0.28414252
vt 0.07462491 0.28982928
vt 0.085779384 0.28982934
vt 0.08576905 0.28414258
vt 0.057943087 0.28414252
vt 0.05793244 0.28982928
vt 0.07381955 0.28982928
vt 0.07381156 0.28414252
vt 0.020045836 0.2898293
vt 0.04633297 0.290717
vt 0.045556977 0.2898293
vt 0.018631943 0.29112893
vt 0.043731615 0.31000608
vt 0.018618122 0.38416725
vt 0.044826552 0.31151485
vt 0.07778877 0.31755203
vt 0.25057834 0.38416725
vt 0.07934734 0.31652933
vt 0.020070672 0.47850507
vt 0.018612526 0.47728166
vt 0.25057834 0.47850507
vt 0.48087645 0.47850507
vt 0.48238233 0.47726694
vt 0.4823731 0.38416725
vt 0.48108602 0.28982937
vt 0.48211795 0.29113978
vt 0.25057834 0.2898293
vt 0.086302415 0.2898293
vt 0.08537918 0.2905627
vt 0.012731468 0.38416725
vt 0.018631943 0.29112893
vt 0.012731468 0.29112893
vt 0.018618122 0.38416725
vt 0.018612526 0.47728166
vt 0.012731468 0.47728166
vt 0.05793244 0.28982928
vt 0.057943087 0.28414252
vt 0.05698299 0.28414252
vt 0.056973916 0.28982928
vt 0.48003528 0.03977856
vt 0.45454067 0.03977856
vt 0.45376444 0.040666476
vt 0.48148835 0.041078523
vt 0.4563666 0.059961945
vt 0.48148835 0.13414724
vt 0.45527133 0.061471134
vt 0.42229834 0.06751032
vt 0.24945237 0.13414724
vt 0.42073926 0.06648727
vt 0.48003528 0.22851586
vt 0.48148835 0.22721589
vt 0.24945237 0.22851586
vt 0.01886952 0.22851586
vt 0.017416537 0.22721589
vt 0.017416537 0.13414724
vt 0.01886952 0.03977862
vt 0.017416477 0.041078582
vt 0.24945237 0.03977862
vt 0.41470546 0.04051216
vt 0.41378194 0.03977856
vt 0.056973916 0.28982928
vt 0.05698299 0.28414252
vt 0.046184547 0.28414258
vt 0.046209127 0.28982934
vt 0.045556977 0.2898293
vt 0.045501113 0.28414255
vt 0.019982668 0.28414255
vt 0.018632943 0.28504193
vt 0.018631943 0.29112893
vt 0.08576905 0.28414258
vt 0.085779384 0.28982934
vt 0.086302415 0.2898293
vt 0.086302415 0.28414255
vt 0.046209127 0.28982934
vt 0.046184547 0.28414258
vt 0.045501113 0.28414258
vt 0.045556977 0.2898293
vt 0.48211795 0.29113978
vt 0.4885807 0.38416725
vt 0.4885807 0.29112893
vt 0.4823731 0.38416725
vt 0.48238233 0.47726694
vt 0.4885807 0.47726694
vt 0.48108602 0.28414255
vt 0.48108602 0.28982937
vt 0.48211795 0.29113978
vt 0.48214206 0.2852355
vt 0.25057834 0.48447138
vt 0.020070672 0.47850507
vt 0.020070672 0.48447138
vt 0.25057834 0.47850507
vt 0.48087645 0.47850507
vt 0.48087645 0.48447138
vt 0.020070672 0.48447138
vt 0.020070672 0.47850507
vt 0.018612526 0.47728166
vt 0.018584803 0.48287
vt 0.48238233 0.48288
vt 0.48238233 0.47726694
vt 0.48087645 0.47850507
vt 0.48087645 0.48447138
vn -0.04818556 -0.9988385 0
vn -0.048185557 -0.9988385 0
vn -0.04818556 -0.9988385 0
vn 2.1906459E-07 -1 0
vn 1.5952364E-07 -1 0
vn 2.1906459E-07 -1 0
vn 1.5952364E-07 -1 0
vn 1.17090586E-07 -1 0
vn 1.17090586E-07 -1 0
vn -0.5486094 -0.8360788 0
vn -0.5486094 -0.8360788 0
vn -0.5486094 -0.8360788 0
vn -0.5486094 -0.8360788 0
vn -0.9740655 -0.22626643 0
vn -0.9740655 -0.22626643 0
vn -0.9740655 -0.22626643 0
vn -0.9740655 -0.22626643 0
vn 0.18015912 -0.9836375 0
vn 0.18015912 -0.9836375 0
vn 0.18015912 -0.9836375 0
vn 0.18015912 -0.9836375 0
vn -0 0 1
vn -0 0 1
vn -0 0 1
vn -0 0 1
vn -0 0 1
vn -0 0 1
vn -0 0 1
vn -0 0 1
vn -0 0 1
vn -0 0 1
vn -0 0 1
vn -0 0 1
vn -0 0 1
vn -0 0 1
vn -0 0 1
vn -0 0 1
vn -0 0 1
vn -0 0 1
vn -0 0 1
vn -0 0 1
vn -0 0 1
vn -1 0 0
vn -1 0 0
vn -1 0 0
vn -1 0 0
vn -1 0 0
vn -1 0 0
vn 0.80932295 -0.5873639 0
vn 0.80932295 -0.5873639 0
vn 0.80932295 -0.5873639 0
vn 0.80932295 -0.5873639 0
vn -0 0 -1
vn -0 0 -1
vn -0 0 -1
vn -0 0 -1
vn -0 0 -1
vn -0 0 -1
vn -0 0 -1
vn -0 0 -1
vn -0 0 -1
vn -0 0 -1
vn -0 0 -1
vn -0 0 -1
vn -0 0 -1
vn -0 0 -1
vn -0 0 -1
vn -0 0 -1
vn -0 0 -1
vn -0 0 -1
vn -0 0 -1
vn -0 0 -1
vn -0 0 -1
vn 0.99102837 0.13365151 0
vn 0.99102837 0.13365151 0
vn 0.99102837 0.13365151 0
vn 0.99102837 0.13365151 0
vn -0.04818556 -0.9988385 0
vn -0.04818556 -0.9988385 0
vn -0.048185557 -0.9988385 0
vn -0.04818556 -0.9988385 0
vn -0.04818556 -0.9988385 0
vn -0.62199026 -0.783025 0
vn -0.62199026 -0.783025 0
vn -0.62199026 -0.783025 0
vn -0.62199026 -0.783025 0
vn 0.75287324 -0.6581656 0
vn 0.75287324 -0.6581656 0
vn 0.75287324 -0.6581656 0
vn 0.75287324 -0.6581656 0
vn 1 3.1034514E-07 0
vn 1 4.6551767E-07 0
vn 1 3.1034514E-07 0
vn 1 4.6551767E-07 0
vn 1 6.206903E-07 0
vn 1 6.206903E-07 0
vn 0.6667655 -0.7452676 0
vn 0.6667655 -0.7452676 0
vn 0.6667655 -0.7452676 0
vn 0.6667655 -0.7452676 0
vn -0 1 0
vn -0 1 0
vn -0 1 0
vn -0 1 0
vn -0 1 0
vn -0 1 0
vn -0.6667655 0.7452676 0
vn -0.6667655 0.7452676 0
vn -0.6667655 0.7452676 0
vn -0.6667655 0.7452676 0
vn 0.66678756 0.74524784 0
vn 0.66678756 0.74524784 0
vn 0.66678756 0.74524784 0
vn 0.66678756 0.74524784 0
g mesh_Pik0911_00_TicketGeneral_2_0
f 3/3/3 2/2/2 1/1/1
f 6/6/6 5/5/5 4/4/4
f 5/5/5 7/7/7 4/4/4
f 8/8/8 7/7/7 5/5/5
f 9/9/9 8/8/8 5/5/5
f 12/12/12 11/11/11 10/10/10
f 13/13/13 12/12/12 10/10/10
f 16/16/16 15/15/15 14/14/14
f 17/17/17 16/16/16 14/14/14
f 20/20/20 19/19/19 18/18/18
f 21/21/21 20/20/20 18/18/18
f 24/24/24 23/23/23 22/22/22
f 23/23/23 25/25/25 22/22/22
f 23/23/23 26/26/26 25/25/25
f 26/26/26 27/27/27 25/25/25
f 28/28/28 27/27/27 26/26/26
f 28/28/28 29/29/29 27/27/27
f 29/29/29 30/30/30 27/27/27
f 29/29/29 31/31/31 30/30/30
f 32/32/32 27/27/27 30/30/30
f 32/32/32 33/33/33 27/27/27
f 30/30/30 34/34/34 32/32/32
f 35/35/35 34/34/34 30/30/30
f 36/36/36 35/35/35 30/30/30
f 30/30/30 37/37/37 36/36/36
f 37/37/37 30/30/30 38/38/38
f 38/38/38 39/39/39 37/37/37
f 30/30/30 40/40/40 38/38/38
f 30/30/30 31/31/31 40/40/40
f 31/31/31 41/41/41 40/40/40
f 41/41/41 31/31/31 42/42/42
f 45/45/45 44/44/44 43/43/43
f 44/44/44 46/46/46 43/43/43
f 43/43/43 46/46/46 47/47/47
f 48/48/48 43/43/43 47/47/47
f 51/51/51 50/50/50 49/49/49
f 52/52/52 51/51/51 49/49/49
f 55/55/55 54/54/54 53/53/53
f 56/56/56 55/55/55 53/53/53
f 57/57/57 55/55/55 56/56/56
f 58/58/58 57/57/57 56/56/56
f 58/58/58 59/59/59 57/57/57
f 59/59/59 58/58/58 60/60/60
f 58/58/58 61/61/61 60/60/60
f 60/60/60 61/61/61 62/62/62
f 61/61/61 58/58/58 63/63/63
f 58/58/58 64/64/64 63/63/63
f 63/63/63 65/65/65 61/61/61
f 61/61/61 65/65/65 66/66/66
f 61/61/61 66/66/66 67/67/67
f 67/67/67 68/68/68 61/61/61
f 69/69/69 61/61/61 68/68/68
f 68/68/68 70/70/70 69/69/69
f 69/69/69 71/71/71 61/61/61
f 61/61/61 71/71/71 62/62/62
f 71/71/71 72/72/72 62/62/62
f 72/72/72 71/71/71 73/73/73
f 76/76/76 75/75/75 74/74/74
f 77/77/77 76/76/76 74/74/74
f 80/80/80 79/79/79 78/78/78
f 78/78/78 81/81/81 80/80/80
f 78/78/78 82/82/82 81/81/81
f 85/85/85 84/84/84 83/83/83
f 86/86/86 85/85/85 83/83/83
f 89/89/89 88/88/88 87/87/87
f 90/90/90 89/89/89 87/87/87
f 93/93/93 92/92/92 91/91/91
f 92/92/92 94/94/94 91/91/91
f 95/95/95 94/94/94 92/92/92
f 96/96/96 95/95/95 92/92/92
f 99/99/99 98/98/98 97/97/97
f 100/100/100 99/99/99 97/97/97
f 103/103/103 102/102/102 101/101/101
f 102/102/102 104/104/104 101/101/101
f 101/101/101 104/104/104 105/105/105
f 106/106/106 101/101/101 105/105/105
f 109/109/109 108/108/108 107/107/107
f 110/110/110 109/109/109 107/107/107
f 113/113/113 112/112/112 111/111/111
f 114/114/114 113/113/113 111/111/111
