g mesh_Pik0911_00_TicketGeneral_1
v 0.04042348 0.024999995 4.7683715E-09
v 4.6095715E-19 0.024999995 -0.0015579307
v 0.040423483 0.024999995 -0.0015579307
v 4.6095715E-19 0.024999995 4.7683715E-09
v -0.039110873 0.024999997 4.7683715E-09
v -0.039110873 0.024999997 -0.0015579307
v -0.042028554 0.024663528 0.00090240326
v -0.042984746 0.025103398 -0.0002462393
v -0.04361172 0.023882449 0.0030765953
v -0.044998635 0.024520459 0.0027658301
v -0.046161644 0.023478627 0.005817304
v -0.04477473 0.022840615 0.0061280695
v -0.047101438 0.022636749 0.008283123
v -0.045714524 0.021998739 0.008593888
v -0.050103143 0.019947797 0.016158937
v -0.04871623 0.019309785 0.0164697
v 0.041922774 0.018067777 4.7683715E-09
v 0.041922774 0.018067777 -0.0015579307
v 0.042323027 0.01777823 -0.0015579307
v 0.042323027 0.01777823 4.7683715E-09
v 0.041922774 0.018067777 -0.0015579307
v 0.041922774 0.018067777 4.7683715E-09
v 0.04068181 0.024785018 4.7683715E-09
v 0.04068181 0.024785018 -0.0015579307
v 0.05112199 0.01897863 -0.0015579307
v 0.05112199 0.01897863 4.7683715E-09
v 0.042323027 0.01777823 4.7683715E-09
v 0.042323027 0.01777823 -0.0015579307
v 0.05112199 0.01897863 4.7683715E-09
v 0.05112199 0.01897863 -0.0015579307
v 0.051430058 0.019364811 -0.0015579307
v 0.051430058 0.019364811 4.7683715E-09
v 0.051430058 0.019364811 4.7683715E-09
v 0.051430058 0.019364811 -0.0015579307
v 0.05095207 0.024752071 -0.0015579307
v 0.05095207 0.024752071 4.7683715E-09
v 0.061470598 -2.2066267E-17 -0.0015579307
v 0.061470583 0.024655608 4.7683715E-09
v 0.061470583 0.024655608 -0.0015579307
v 0.061470598 -2.2066267E-17 4.7683715E-09
v 0.06147061 -0.024655608 4.7683715E-09
v 0.06147061 -0.024655608 -0.0015579307
v 0.061085675 0.024999995 4.7683715E-09
v 0.051178973 0.024999995 4.7683715E-09
v 0.051178973 0.024999995 -0.0015579307
v 0.061085675 0.024999995 -0.0015579307
v 0.061470583 0.024655608 -0.0015579307
v 0.061470583 0.024655608 4.7683715E-09
v 0.061085675 0.024999995 4.7683715E-09
v 0.061085675 0.024999995 -0.0015579307
v 0.05095207 0.024752071 -0.0015579307
v 0.061085675 0.024999995 -0.0015579307
v 0.051178973 0.024999995 -0.0015579307
v 0.061470583 0.024655608 -0.0015579307
v 0.061470598 -2.2066267E-17 -0.0015579307
v 0.051430058 0.019364811 -0.0015579307
v 0.05112199 0.01897863 -0.0015579307
v 0.042323027 0.01777823 -0.0015579307
v 6.9143567E-19 -9.689847E-18 -0.0015579307
v 0.041922774 0.018067777 -0.0015579307
v 0.04068181 0.024785018 -0.0015579307
v 0.040423483 0.024999995 -0.0015579307
v 4.6095715E-19 0.024999995 -0.0015579307
v -0.039110873 0.024999997 -0.0015579307
v 0.061085675 -0.024999995 -0.0015579307
v 0.06147061 -0.024655608 -0.0015579307
v -6.0889385E-19 -0.025000002 -0.0015579307
v -0.057436578 -0.025000012 -0.0015579307
v -0.04827372 -2.9263876E-18 -0.0015579307
v -0.042984746 0.025103398 -0.0002462393
v -0.060986586 -0.025045594 -0.0014282194
v -0.052080948 7.2742194E-05 -0.0014174677
v -0.044998635 0.024520459 0.0027658301
v -0.055262405 2.690727E-05 0.00051098096
v -0.06173585 -0.017136918 -0.0007290433
v -0.061367605 -0.024703 -0.0015025499
v -0.06045509 -0.009096627 0.0027295835
v -0.056869023 -0.00081085425 0.003736245
v -0.046161644 0.023478627 0.005817304
v -0.05783225 -0.001673722 0.0062635425
v -0.047101438 0.022636749 0.008283123
v -0.050103143 0.019947797 0.016158937
v -0.05033842 0.019534566 0.016360577
v 0.05095207 0.024752071 4.7683715E-09
v 0.051178973 0.024999995 4.7683715E-09
v 0.061085675 0.024999995 4.7683715E-09
v 0.061470583 0.024655608 4.7683715E-09
v 0.061470598 -2.2066267E-17 4.7683715E-09
v 0.051430058 0.019364811 4.7683715E-09
v 0.05112199 0.01897863 4.7683715E-09
v 0.042323027 0.01777823 4.7683715E-09
v 6.9143567E-19 -9.689847E-18 4.7683715E-09
v 0.041922774 0.018067777 4.7683715E-09
v 0.04068181 0.024785018 4.7683715E-09
v 0.04042348 0.024999995 4.7683715E-09
v 4.6095715E-19 0.024999995 4.7683715E-09
v -0.039110873 0.024999997 4.7683715E-09
v 0.061085675 -0.024999995 4.7683715E-09
v 0.06147061 -0.024655608 4.7683715E-09
v -6.0889385E-19 -0.025000002 4.7683715E-09
v -0.04827372 -2.9263876E-18 4.7683715E-09
v -0.057436578 -0.025000012 4.7683715E-09
v -0.042028554 0.024663528 0.00090240326
v -0.061199162 -0.024947805 0.00011204378
v -0.051747587 -8.061019E-05 9.6638454E-05
v -0.05411513 -0.0005008573 0.001423339
v -0.04361172 0.023882449 0.0030765953
v -0.04477473 0.022840615 0.0061280695
v -0.06095487 -0.017496185 0.00057025073
v -0.06157783 -0.024606295 3.8104812E-05
v -0.055482104 -0.0014488614 0.0040470017
v -0.059068177 -0.009734637 0.0030403489
v -0.045714524 0.021998739 0.008593888
v -0.056445334 -0.0023117322 0.006574308
v -0.04871623 0.019309785 0.0164697
v -0.04895151 0.018896556 0.016671343
v 0.04068181 0.024785018 -0.0015579307
v 0.04068181 0.024785018 4.7683715E-09
v 0.04042348 0.024999995 4.7683715E-09
v 0.040423483 0.024999995 -0.0015579307
v 0.05095207 0.024752071 4.7683715E-09
v 0.05095207 0.024752071 -0.0015579307
v 0.051178973 0.024999995 -0.0015579307
v 0.051178973 0.024999995 4.7683715E-09
v -6.0889385E-19 -0.025000002 -0.0015579307
v 0.061085675 -0.024999995 4.7683715E-09
v 0.061085675 -0.024999995 -0.0015579307
v -6.0889385E-19 -0.025000002 4.7683715E-09
v -0.057436578 -0.025000012 4.7683715E-09
v -0.057436578 -0.025000012 -0.0015579307
v -0.061199162 -0.024947805 0.00011204378
v -0.060986586 -0.025045594 -0.0014282194
v 0.061085675 -0.024999995 -0.0015579307
v 0.061085675 -0.024999995 4.7683715E-09
v 0.06147061 -0.024655608 4.7683715E-09
v 0.06147061 -0.024655608 -0.0015579307
v -0.04895151 0.018896556 0.016671343
v -0.05783225 -0.001673722 0.0062635425
v -0.05033842 0.019534566 0.016360577
v -0.056445334 -0.0023117322 0.006574308
v -0.06045509 -0.009096627 0.0027295835
v -0.059068177 -0.009734637 0.0030403489
v -0.06173585 -0.017136918 -0.0007290433
v -0.06095487 -0.017496185 0.00057025073
v -0.06157783 -0.024606295 3.8104812E-05
v -0.061367605 -0.024703 -0.0015025499
v -0.050103143 0.019947797 0.016158937
v -0.04871623 0.019309785 0.0164697
v -0.04895151 0.018896556 0.016671343
v -0.05033842 0.019534566 0.016360577
v -0.061367605 -0.024703 -0.0015025499
v -0.06157783 -0.024606295 3.8104812E-05
v -0.061199162 -0.024947805 0.00011204378
v -0.060986586 -0.025045594 -0.0014282194
vt 0.90311694 0.22850507
vt 0.75057834 0.23447138
vt 0.90311694 0.23447141
vt 0.75057834 0.22850507
vt 0.6029929 0.22850507
vt 0.6029929 0.23447138
vt 0.58922297 0.22850507
vt 0.58922297 0.23447138
vt 0.5768417 0.22850507
vt 0.5768417 0.23447138
vt 0.5639071 0.23447141
vt 0.5639071 0.22850507
vt 0.5534549 0.23447141
vt 0.5534549 0.22850507
vt 0.5200707 0.23447138
vt 0.5200707 0.22850507
vt 0.9174764 0.22850507
vt 0.9174697 0.23447141
vt 0.9183692 0.23447141
vt 0.9183666 0.22850507
vt 0.9174697 0.23447141
vt 0.9174764 0.22850507
vt 0.9040917 0.22850507
vt 0.904686 0.23447141
vt 0.9337301 0.23447141
vt 0.93374014 0.22850507
vt 0.9183666 0.22850507
vt 0.9183692 0.23447141
vt 0.93374014 0.22850507
vt 0.9337301 0.23447141
vt 0.93451464 0.23447141
vt 0.9345257 0.22850507
vt 0.9345257 0.22850507
vt 0.93451464 0.23447141
vt 0.9426894 0.23447141
vt 0.94284666 0.22850507
vt 0.9885807 0.13416725
vt 0.9823823 0.22726694
vt 0.9885807 0.22726694
vt 0.9823731 0.13416725
vt 0.98211795 0.04113978
vt 0.9885807 0.041128933
vt 0.98087645 0.22850507
vt 0.94370294 0.22850507
vt 0.94370294 0.23447141
vt 0.98087645 0.23447138
vt 0.9823823 0.23288
vt 0.9823823 0.22726694
vt 0.98087645 0.22850507
vt 0.98087645 0.23447138
vt 0.057121307 0.22758001
vt 0.01886952 0.22851586
vt 0.05626473 0.22851586
vt 0.017416537 0.22721589
vt 0.017416537 0.13414724
vt 0.055316955 0.20724446
vt 0.05647984 0.20578676
vt 0.089693695 0.2012555
vt 0.24945237 0.13414724
vt 0.09120458 0.20234853
vt 0.09588888 0.2277044
vt 0.096863985 0.22851586
vt 0.24945237 0.22851586
vt 0.39708602 0.22851586
vt 0.01886952 0.03977862
vt 0.017416477 0.041078582
vt 0.24945237 0.03977862
vt 0.46626085 0.039778568
vt 0.43167347 0.13414724
vt 0.41086042 0.22851586
vt 0.48003528 0.03977856
vt 0.4454479 0.13414724
vt 0.4232457 0.22851586
vt 0.45783317 0.13414724
vt 0.48148835 0.06899914
vt 0.48148835 0.041078523
vt 0.48148835 0.10157319
vt 0.47077206 0.13414724
vt 0.43618459 0.22851586
vt 0.481488 0.13414738
vt 0.44664016 0.22851586
vt 0.48003528 0.22851586
vt 0.48148835 0.22721589
vt 0.94284666 0.22756958
vt 0.94370294 0.22850507
vt 0.98087645 0.22850507
vt 0.9823823 0.22726694
vt 0.9823731 0.13416725
vt 0.9446504 0.2072407
vt 0.94348794 0.20578343
vt 0.9102849 0.20125365
vt 0.75057834 0.13416725
vt 0.9087745 0.20234627
vt 0.9040917 0.22769386
vt 0.90311694 0.22850507
vt 0.75057834 0.22850507
vt 0.6029929 0.22850507
vt 0.981086 0.039829373
vt 0.98211795 0.04113978
vt 0.75057834 0.039829314
vt 0.5684168 0.13416728
vt 0.53381723 0.039829314
vt 0.58922297 0.22850507
vt 0.5200459 0.039829314
vt 0.55464685 0.13416728
vt 0.54226565 0.13416725
vt 0.5768417 0.22850507
vt 0.5639071 0.22850507
vt 0.51862776 0.06904039
vt 0.51863194 0.041128874
vt 0.52933097 0.13416725
vt 0.518623 0.10160381
vt 0.5534549 0.22850507
vt 0.51861787 0.13417196
vt 0.5200707 0.22850507
vt 0.5186125 0.22728166
vt 0.904686 0.23447141
vt 0.9040917 0.22850507
vt 0.90311694 0.22850507
vt 0.90311694 0.23447141
vt 0.94284666 0.22850507
vt 0.9426894 0.23447141
vt 0.94370294 0.23447141
vt 0.94370294 0.22850507
vt 0.75057834 0.034142554
vt 0.981086 0.039829373
vt 0.981086 0.034142554
vt 0.75057834 0.039829314
vt 0.53381723 0.039829314
vt 0.5338319 0.034142554
vt 0.5200459 0.039829314
vt 0.52006143 0.034142554
vt 0.981086 0.034142554
vt 0.981086 0.039829373
vt 0.98211795 0.04113978
vt 0.9821421 0.035235494
vt 0.5186125 0.22728166
vt 0.5127381 0.1341762
vt 0.51273143 0.22728166
vt 0.51861787 0.13417196
vt 0.51273143 0.10160381
vt 0.518623 0.10160381
vt 0.51273143 0.06904039
vt 0.51862776 0.06904039
vt 0.51863194 0.041128874
vt 0.51273143 0.041128874
vt 0.5200707 0.23447138
vt 0.5200707 0.22850507
vt 0.5186125 0.22728166
vt 0.5185848 0.23287001
vt 0.51863295 0.03504193
vt 0.51863194 0.041128874
vt 0.5200459 0.039829314
vt 0.52006143 0.034142554
vn -0 1 1.5143177E-06
vn -0 1 7.6965466E-07
vn -0 1 1.5143174E-06
vn -0 1 7.6965466E-07
vn 0.0015223585 0.99989736 0.014244068
vn 0.0010455315 0.9999516 0.0097824205
vn 0.0991404 0.96061194 0.25960714
vn 0.10133847 0.959633 0.2623643
vn 0.2457487 0.8873147 0.39023116
vn 0.25504944 0.8832783 0.3934072
vn 0.3039402 0.8601809 0.4095232
vn 0.30394018 0.8601809 0.40952313
vn 0.30393943 0.86018187 0.40952167
vn 0.30393946 0.86018187 0.40952173
vn 0.30393928 0.8601821 0.40952125
vn 0.3039393 0.8601821 0.40952125
vn 0.58612126 0.8102234 0
vn 0.58612126 0.8102234 0
vn 0.58612126 0.8102234 0
vn 0.58612126 0.8102234 0
vn 0.9833597 0.18166901 0
vn 0.9833597 0.18166901 0
vn 0.9833597 0.18166901 0
vn 0.9833597 0.18166901 0
vn -0.13517293 0.99082196 0
vn -0.13517293 0.99082196 0
vn -0.13517293 0.99082196 0
vn -0.13517293 0.99082196 0
vn -0.7817385 0.62360626 0
vn -0.7817385 0.62360626 0
vn -0.7817385 0.62360626 0
vn -0.7817385 0.62360626 0
vn -0.9960871 -0.088378 0
vn -0.9960871 -0.088378 0
vn -0.9960871 -0.088378 0
vn -0.9960871 -0.088378 0
vn 1 4.6551767E-07 0
vn 1 6.206903E-07 0
vn 1 6.206903E-07 0
vn 1 4.6551767E-07 0
vn 1 3.1034514E-07 0
vn 1 3.1034514E-07 0
vn -0 1 0
vn -0 1 0
vn -0 1 0
vn -0 1 0
vn 0.66678756 0.74524784 0
vn 0.66678756 0.74524784 0
vn 0.66678756 0.74524784 0
vn 0.66678756 0.74524784 0
vn -0 0 -1
vn -0 0 -1
vn -0 0 -1
vn -0 0 -1
vn -0 0 -1
vn -0 0 -1
vn -0 0 -1
vn -0 0 -1
vn -0 0 -1
vn -0 0 -1
vn -0 0 -1
vn -0 0 -1
vn -0 0 -1
vn -0.010301354 0.005049479 -0.9999342
vn -0 0 -1
vn -0 0 -1
vn -0 0 -1
vn -0.0036587273 0.0013404354 -0.9999925
vn -0.009268148 0.0044185417 -0.9999473
vn -0.39115015 0.18338244 -0.9018717
vn -0.16602272 0.074681856 -0.98328996
vn -0.32566637 0.14996281 -0.93351626
vn -0.77368766 0.35465708 -0.52500063
vn -0.70866627 0.3231018 -0.627214
vn -0.36564034 0.16743416 -0.9155725
vn -0.31873387 0.14709572 -0.9363608
vn -0.82736343 0.3658314 -0.42618915
vn -0.8738087 0.39730662 -0.2803673
vn -0.88156366 0.4037338 -0.24463147
vn -0.89022595 0.4095227 -0.19947171
vn -0.89022595 0.40952253 -0.1994719
vn -0.89022595 0.40952224 -0.19947238
vn -0.89022595 0.40952227 -0.1994724
vn -0 0 1
vn -0 0 1
vn -0 0 1
vn -0 0 1
vn -0 0 1
vn -0 0 1
vn -0 0 1
vn -0 0 1
vn -0 0 1
vn -0 0 1
vn -0 0 1
vn -0 0 1
vn -0 0 1
vn 0.0064443275 -0.003093061 0.9999745
vn -0 0 1
vn -0 0 1
vn -0 0 1
vn 0.006643755 -0.00310033 0.9999732
vn 0.0027833953 -0.0010092101 0.9999956
vn 0.3363268 -0.15705757 0.92855656
vn 0.13417286 -0.06021954 0.9891265
vn 0.2927082 -0.13432246 0.94672024
vn 0.72975516 -0.3339738 0.5965894
vn 0.787708 -0.36152905 0.49881148
vn 0.88402 -0.40533674 0.23283209
vn 0.34138116 -0.15715335 0.926694
vn 0.3036258 -0.14037375 0.9423941
vn 0.87757325 -0.40109706 0.2626525
vn 0.8333376 -0.37459627 0.40648004
vn 0.89022577 -0.40952295 0.19947226
vn 0.89022577 -0.40952295 0.19947201
vn 0.89022565 -0.4095229 0.19947274
vn 0.89022565 -0.4095229 0.19947274
vn 0.63966054 0.76865757 1.4229762E-06
vn 0.63966054 0.76865757 1.4229762E-06
vn 0.63966054 0.7686576 1.4229763E-06
vn 0.63966054 0.7686576 1.4229761E-06
vn -0.7376917 0.6751377 0
vn -0.7376917 0.6751377 0
vn -0.7376917 0.6751377 0
vn -0.7376917 0.6751377 0
vn 1.4081154E-07 -1 0
vn 1.17090586E-07 -1 0
vn 1.17090586E-07 -1 0
vn 1.4081154E-07 -1 0
vn 8.5023E-06 -0.9999982 0.0019088599
vn 8.177126E-06 -0.99999833 0.0018344009
vn 0.0001379796 -0.99950194 0.031556953
vn 0.0001379796 -0.99950194 0.031556953
vn 0.6667655 -0.7452676 0
vn 0.6667655 -0.7452676 0
vn 0.6667655 -0.7452676 0
vn 0.6667655 -0.7452676 0
vn -0.33929262 -0.3039399 0.8902253
vn -0.33929226 -0.3039402 0.8902253
vn -0.3392926 -0.30393988 0.8902253
vn -0.33929232 -0.30394024 0.8902253
vn -0.47997442 -0.2413942 0.8434177
vn -0.49392667 -0.23451363 0.8372813
vn -0.84602237 -0.088881396 0.5256865
vn -0.8433629 -0.09002321 0.52974975
vn -0.98040557 -0.00050840626 0.1969887
vn -0.98040557 -0.00050840626 0.19698866
vn 0.0002870319 0.43840694 0.8987765
vn 0.00028703187 0.43840694 0.8987765
vn 0.0002870319 0.43840697 0.8987765
vn 0.00028703193 0.43840697 0.8987766
vn -0.6637707 -0.74664325 -0.04395834
vn -0.6637707 -0.74664325 -0.043958347
vn -0.66377074 -0.7466432 -0.043958344
vn -0.6637707 -0.74664325 -0.043958347
g mesh_Pik0911_00_TicketGeneral_1_0
f 3/3/3 2/2/2 1/1/1
f 2/2/2 4/4/4 1/1/1
f 5/5/5 4/4/4 2/2/2
f 6/6/6 5/5/5 2/2/2
f 7/7/7 5/5/5 6/6/6
f 8/8/8 7/7/7 6/6/6
f 9/9/9 7/7/7 8/8/8
f 10/10/10 9/9/9 8/8/8
f 9/9/9 10/10/10 11/11/11
f 12/12/12 9/9/9 11/11/11
f 12/12/12 11/11/11 13/13/13
f 14/14/14 12/12/12 13/13/13
f 14/14/14 13/13/13 15/15/15
f 16/16/16 14/14/14 15/15/15
f 19/19/19 18/18/18 17/17/17
f 20/20/20 19/19/19 17/17/17
f 23/23/23 22/22/22 21/21/21
f 24/24/24 23/23/23 21/21/21
f 27/27/27 26/26/26 25/25/25
f 28/28/28 27/27/27 25/25/25
f 31/31/31 30/30/30 29/29/29
f 32/32/32 31/31/31 29/29/29
f 35/35/35 34/34/34 33/33/33
f 36/36/36 35/35/35 33/33/33
f 39/39/39 38/38/38 37/37/37
f 38/38/38 40/40/40 37/37/37
f 37/37/37 40/40/40 41/41/41
f 42/42/42 37/37/37 41/41/41
f 45/45/45 44/44/44 43/43/43
f 46/46/46 45/45/45 43/43/43
f 49/49/49 48/48/48 47/47/47
f 50/50/50 49/49/49 47/47/47
f 53/53/53 52/52/52 51/51/51
f 52/52/52 54/54/54 51/51/51
f 54/54/54 55/55/55 51/51/51
f 55/55/55 56/56/56 51/51/51
f 55/55/55 57/57/57 56/56/56
f 58/58/58 57/57/57 55/55/55
f 59/59/59 58/58/58 55/55/55
f 58/58/58 59/59/59 60/60/60
f 60/60/60 59/59/59 61/61/61
f 61/61/61 59/59/59 62/62/62
f 59/59/59 63/63/63 62/62/62
f 64/64/64 63/63/63 59/59/59
f 65/65/65 59/59/59 55/55/55
f 55/55/55 66/66/66 65/65/65
f 65/65/65 67/67/67 59/59/59
f 59/59/59 67/67/67 68/68/68
f 69/69/69 64/64/64 59/59/59
f 69/69/69 59/59/59 68/68/68
f 70/70/70 64/64/64 69/69/69
f 69/69/69 68/68/68 71/71/71
f 72/72/72 70/70/70 69/69/69
f 72/72/72 69/69/69 71/71/71
f 73/73/73 70/70/70 72/72/72
f 74/74/74 72/72/72 71/71/71
f 74/74/74 73/73/73 72/72/72
f 71/71/71 75/75/75 74/74/74
f 71/71/71 76/76/76 75/75/75
f 75/75/75 77/77/77 74/74/74
f 74/74/74 78/78/78 73/73/73
f 77/77/77 78/78/78 74/74/74
f 78/78/78 79/79/79 73/73/73
f 77/77/77 80/80/80 78/78/78
f 78/78/78 80/80/80 79/79/79
f 80/80/80 81/81/81 79/79/79
f 82/82/82 81/81/81 80/80/80
f 83/83/83 82/82/82 80/80/80
f 86/86/86 85/85/85 84/84/84
f 87/87/87 86/86/86 84/84/84
f 87/87/87 84/84/84 88/88/88
f 84/84/84 89/89/89 88/88/88
f 90/90/90 88/88/88 89/89/89
f 90/90/90 91/91/91 88/88/88
f 91/91/91 92/92/92 88/88/88
f 93/93/93 92/92/92 91/91/91
f 94/94/94 92/92/92 93/93/93
f 92/92/92 94/94/94 95/95/95
f 96/96/96 92/92/92 95/95/95
f 92/92/92 96/96/96 97/97/97
f 88/88/88 92/92/92 98/98/98
f 98/98/98 99/99/99 88/88/88
f 92/92/92 100/100/100 98/98/98
f 101/101/101 92/92/92 97/97/97
f 100/100/100 92/92/92 101/101/101
f 102/102/102 100/100/100 101/101/101
f 101/101/101 97/97/97 103/103/103
f 102/102/102 101/101/101 104/104/104
f 105/105/105 101/101/101 103/103/103
f 101/101/101 105/105/105 104/104/104
f 106/106/106 105/105/105 103/103/103
f 104/104/104 105/105/105 106/106/106
f 107/107/107 106/106/106 103/103/103
f 107/107/107 108/108/108 106/106/106
f 106/106/106 109/109/109 104/104/104
f 109/109/109 110/110/110 104/104/104
f 108/108/108 111/111/111 106/106/106
f 106/106/106 111/111/111 109/109/109
f 111/111/111 112/112/112 109/109/109
f 108/108/108 113/113/113 111/111/111
f 111/111/111 114/114/114 112/112/112
f 113/113/113 114/114/114 111/111/111
f 114/114/114 113/113/113 115/115/115
f 116/116/116 114/114/114 115/115/115
f 119/119/119 118/118/118 117/117/117
f 120/120/120 119/119/119 117/117/117
f 123/123/123 122/122/122 121/121/121
f 124/124/124 123/123/123 121/121/121
f 127/127/127 126/126/126 125/125/125
f 126/126/126 128/128/128 125/125/125
f 125/125/125 128/128/128 129/129/129
f 130/130/130 125/125/125 129/129/129
f 130/130/130 129/129/129 131/131/131
f 132/132/132 130/130/130 131/131/131
f 135/135/135 134/134/134 133/133/133
f 136/136/136 135/135/135 133/133/133
f 139/139/139 138/138/138 137/137/137
f 138/138/138 140/140/140 137/137/137
f 140/140/140 138/138/138 141/141/141
f 142/142/142 140/140/140 141/141/141
f 142/142/142 141/141/141 143/143/143
f 144/144/144 142/142/142 143/143/143
f 144/144/144 143/143/143 145/145/145
f 143/143/143 146/146/146 145/145/145
f 149/149/149 148/148/148 147/147/147
f 150/150/150 149/149/149 147/147/147
f 153/153/153 152/152/152 151/151/151
f 154/154/154 153/153/153 151/151/151
