g mesh_Pik0911_00_TicketGeneral_1
v 0.04042348 0.024999995 4.7683715E-09
v 4.6095715E-19 0.024999995 -0.0015579307
v 0.040423483 0.024999995 -0.0015579307
v 4.6095715E-19 0.024999995 4.7683715E-09
v -0.061085675 0.024999995 4.7683715E-09
v -0.061085675 0.024999995 -0.0015579307
v 0.041922774 0.018067777 4.7683715E-09
v 0.041922774 0.018067777 -0.0015579307
v 0.042323027 0.01777823 -0.0015579307
v 0.042323027 0.01777823 4.7683715E-09
v 0.041922774 0.018067777 -0.0015579307
v 0.041922774 0.018067777 4.7683715E-09
v 0.04068181 0.024785018 4.7683715E-09
v 0.04068181 0.024785018 -0.0015579307
v 0.05112199 0.01897863 -0.0015579307
v 0.05112199 0.01897863 4.7683715E-09
v 0.042323027 0.01777823 4.7683715E-09
v 0.042323027 0.01777823 -0.0015579307
v 0.05112199 0.01897863 4.7683715E-09
v 0.05112199 0.01897863 -0.0015579307
v 0.051430058 0.019364811 -0.0015579307
v 0.051430058 0.019364811 4.7683715E-09
v 0.051430058 0.019364811 4.7683715E-09
v 0.051430058 0.019364811 -0.0015579307
v 0.05095207 0.024752071 -0.0015579307
v 0.05095207 0.024752071 4.7683715E-09
v 0.061470598 -2.2066267E-17 -0.0015579307
v 0.061470583 0.024655608 4.7683715E-09
v 0.061470583 0.024655608 -0.0015579307
v 0.061470598 -2.2066267E-17 4.7683715E-09
v 0.06147061 -0.024655608 4.7683715E-09
v 0.06147061 -0.024655608 -0.0015579307
v 0.061085675 0.024999995 4.7683715E-09
v 0.051178973 0.024999995 4.7683715E-09
v 0.051178973 0.024999995 -0.0015579307
v 0.061085675 0.024999995 -0.0015579307
v 0.061470583 0.024655608 -0.0015579307
v 0.061470583 0.024655608 4.7683715E-09
v 0.061085675 0.024999995 4.7683715E-09
v 0.061085675 0.024999995 -0.0015579307
v 0.05095207 0.024752071 -0.0015579307
v 0.061085675 0.024999995 -0.0015579307
v 0.051178973 0.024999995 -0.0015579307
v 0.061470583 0.024655608 -0.0015579307
v 0.061470598 -2.2066267E-17 -0.0015579307
v 0.051430058 0.019364811 -0.0015579307
v 0.05112199 0.01897863 -0.0015579307
v 0.042323027 0.01777823 -0.0015579307
v 6.9143567E-19 -9.689847E-18 -0.0015579307
v 0.041922774 0.018067777 -0.0015579307
v 0.04068181 0.024785018 -0.0015579307
v 0.040423483 0.024999995 -0.0015579307
v 4.6095715E-19 0.024999995 -0.0015579307
v 0.061085675 -0.024999995 -0.0015579307
v 0.06147061 -0.024655608 -0.0015579307
v -6.0889385E-19 -0.025000002 -0.0015579307
v -0.030543989 -0.025001433 -0.0015577143
v -0.0615317 -7.557934E-05 -0.0015403162
v -0.061085675 0.024999995 -0.0015579307
v -0.06147061 0.024655608 -0.0015579307
v -0.033673372 -0.025094071 -0.0005978383
v -0.06161507 -0.0026439528 -0.000664811
v -0.052396517 -0.014263809 0.017763106
v -0.052793793 -0.013934672 0.017738253
v 0.05095207 0.024752071 4.7683715E-09
v 0.051178973 0.024999995 4.7683715E-09
v 0.061085675 0.024999995 4.7683715E-09
v 0.061470583 0.024655608 4.7683715E-09
v 0.061470598 -2.2066267E-17 4.7683715E-09
v 0.051430058 0.019364811 4.7683715E-09
v 0.05112199 0.01897863 4.7683715E-09
v 0.042323027 0.01777823 4.7683715E-09
v 6.9143567E-19 -9.689847E-18 4.7683715E-09
v 0.041922774 0.018067777 4.7683715E-09
v 0.04068181 0.024785018 4.7683715E-09
v 0.04042348 0.024999995 4.7683715E-09
v 4.6095715E-19 0.024999995 4.7683715E-09
v 0.061085675 -0.024999995 4.7683715E-09
v 0.06147061 -0.024655608 4.7683715E-09
v -6.0889385E-19 -0.025000002 4.7683715E-09
v -0.06140861 7.670173E-05 5.2649666E-06
v -0.061085675 0.024999995 4.7683715E-09
v -0.06147061 0.024655608 4.7683715E-09
v -0.030541684 -0.024998581 2.1684562E-07
v -0.061216734 -0.002152243 0.0007588149
v -0.033453 -0.024480201 0.0008169977
v -0.05144568 -0.0130878575 0.018137569
v -0.051842965 -0.012758721 0.018112719
v 0.04068181 0.024785018 -0.0015579307
v 0.04068181 0.024785018 4.7683715E-09
v 0.04042348 0.024999995 4.7683715E-09
v 0.040423483 0.024999995 -0.0015579307
v 0.05095207 0.024752071 4.7683715E-09
v 0.05095207 0.024752071 -0.0015579307
v 0.051178973 0.024999995 -0.0015579307
v 0.051178973 0.024999995 4.7683715E-09
v -6.0889385E-19 -0.025000002 -0.0015579307
v 0.061085675 -0.024999995 4.7683715E-09
v 0.061085675 -0.024999995 -0.0015579307
v -6.0889385E-19 -0.025000002 4.7683715E-09
v -0.030541684 -0.024998581 2.1684562E-07
v -0.030543989 -0.025001433 -0.0015577143
v -0.033453 -0.024480201 0.0008169977
v -0.033673372 -0.025094071 -0.0005978383
v -0.05144568 -0.0130878575 0.018137569
v -0.052396517 -0.014263809 0.017763106
v 0.061085675 -0.024999995 -0.0015579307
v 0.061085675 -0.024999995 4.7683715E-09
v 0.06147061 -0.024655608 4.7683715E-09
v 0.06147061 -0.024655608 -0.0015579307
v -0.06147061 0.024655608 4.7683715E-09
v -0.0615317 -7.557934E-05 -0.0015403162
v -0.06147061 0.024655608 -0.0015579307
v -0.06140861 7.670173E-05 5.2649666E-06
v -0.061216734 -0.002152243 0.0007588149
v -0.06161507 -0.0026439528 -0.000664811
v -0.052793793 -0.013934672 0.017738253
v -0.051842965 -0.012758721 0.018112719
v -0.061085675 0.024999995 -0.0015579307
v -0.061085675 0.024999995 4.7683715E-09
v -0.06147061 0.024655608 4.7683715E-09
v -0.06147061 0.024655608 -0.0015579307
v -0.052793793 -0.013934672 0.017738253
v -0.051842965 -0.012758721 0.018112719
v -0.05144568 -0.0130878575 0.018137569
v -0.052396517 -0.014263809 0.017763106
vt 0.90311694 0.47850507
vt 0.75057834 0.48447138
vt 0.90311694 0.4844714
vt 0.75057834 0.47850507
vt 0.5200707 0.47850507
vt 0.5200707 0.48447138
vt 0.9174764 0.47850507
vt 0.9174697 0.4844714
vt 0.9183692 0.4844714
vt 0.9183666 0.47850507
vt 0.9174697 0.4844714
vt 0.9174764 0.47850507
vt 0.9040917 0.47850507
vt 0.904686 0.4844714
vt 0.9337301 0.4844714
vt 0.93374014 0.47850507
vt 0.9183666 0.47850507
vt 0.9183692 0.4844714
vt 0.93374014 0.47850507
vt 0.9337301 0.4844714
vt 0.93451464 0.4844714
vt 0.9345257 0.47850507
vt 0.9345257 0.47850507
vt 0.93451464 0.4844714
vt 0.9426894 0.4844714
vt 0.94284666 0.47850507
vt 0.9885807 0.38416725
vt 0.9823823 0.47726694
vt 0.9885807 0.47726694
vt 0.9823731 0.38416725
vt 0.98211795 0.29113978
vt 0.9885807 0.29112893
vt 0.98087645 0.47850507
vt 0.94370294 0.47850507
vt 0.94370294 0.4844714
vt 0.98087645 0.48447138
vt 0.9823823 0.48288
vt 0.9823823 0.47726694
vt 0.98087645 0.47850507
vt 0.98087645 0.48447138
vt 0.057121307 0.22758001
vt 0.01886952 0.22851586
vt 0.05626473 0.22851586
vt 0.017416537 0.22721589
vt 0.017416537 0.13414724
vt 0.055316955 0.20724446
vt 0.05647984 0.20578676
vt 0.089693695 0.2012555
vt 0.24945237 0.13414724
vt 0.09120458 0.20234853
vt 0.09588888 0.2277044
vt 0.096863985 0.22851586
vt 0.24945237 0.22851586
vt 0.01886952 0.03977862
vt 0.017416477 0.041078582
vt 0.24945237 0.03977862
vt 0.36474383 0.03977859
vt 0.48148835 0.13414724
vt 0.48003528 0.22851586
vt 0.48148835 0.22721589
vt 0.37627298 0.039778586
vt 0.48148835 0.12484037
vt 0.48003528 0.03977856
vt 0.48148835 0.041078523
vt 0.94284666 0.47756958
vt 0.94370294 0.47850507
vt 0.98087645 0.47850507
vt 0.9823823 0.47726694
vt 0.9823731 0.38416725
vt 0.9446504 0.4572407
vt 0.94348794 0.45578343
vt 0.9102849 0.45125365
vt 0.75057834 0.38416725
vt 0.9087745 0.45234627
vt 0.9040917 0.47769386
vt 0.90311694 0.47850507
vt 0.75057834 0.47850507
vt 0.981086 0.28982937
vt 0.98211795 0.29113978
vt 0.75057834 0.2898293
vt 0.5186181 0.38416725
vt 0.5200707 0.47850507
vt 0.5186125 0.47728166
vt 0.6353121 0.2898293
vt 0.51861954 0.37486342
vt 0.6237855 0.2898293
vt 0.5200459 0.2898293
vt 0.51863194 0.29112887
vt 0.904686 0.4844714
vt 0.9040917 0.47850507
vt 0.90311694 0.47850507
vt 0.90311694 0.4844714
vt 0.94284666 0.47850507
vt 0.9426894 0.4844714
vt 0.94370294 0.4844714
vt 0.94370294 0.47850507
vt 0.75057834 0.28414255
vt 0.981086 0.28982937
vt 0.981086 0.28414255
vt 0.75057834 0.2898293
vt 0.6353121 0.2898293
vt 0.6353199 0.28414255
vt 0.6237855 0.2898293
vt 0.6237941 0.28414255
vt 0.5200459 0.2898293
vt 0.52006143 0.28414255
vt 0.981086 0.28414255
vt 0.981086 0.28982937
vt 0.98211795 0.29113978
vt 0.9821421 0.2852355
vt 0.5186125 0.47728166
vt 0.51273143 0.38416725
vt 0.51273143 0.47728166
vt 0.5186181 0.38416725
vt 0.51861954 0.37486342
vt 0.51273143 0.37486342
vt 0.51273143 0.29112887
vt 0.51863194 0.29112887
vt 0.5200707 0.48447138
vt 0.5200707 0.47850507
vt 0.5186125 0.47728166
vt 0.5185848 0.48287
vt 0.51863295 0.28504193
vt 0.51863194 0.29112887
vt 0.5200459 0.2898293
vt 0.52006143 0.28414255
vn -0 1 1.5143177E-06
vn -0 1 6.0303904E-07
vn -0 1 1.5143174E-06
vn -0 1 6.0303904E-07
vn -0 1 0
vn -0 1 0
vn 0.58612126 0.8102234 0
vn 0.58612126 0.8102234 0
vn 0.58612126 0.8102234 0
vn 0.58612126 0.8102234 0
vn 0.9833597 0.18166901 0
vn 0.9833597 0.18166901 0
vn 0.9833597 0.18166901 0
vn 0.9833597 0.18166901 0
vn -0.13517293 0.99082196 0
vn -0.13517293 0.99082196 0
vn -0.13517293 0.99082196 0
vn -0.13517293 0.99082196 0
vn -0.7817385 0.62360626 0
vn -0.7817385 0.62360626 0
vn -0.7817385 0.62360626 0
vn -0.7817385 0.62360626 0
vn -0.9960871 -0.088378 0
vn -0.9960871 -0.088378 0
vn -0.9960871 -0.088378 0
vn -0.9960871 -0.088378 0
vn 1 4.6551767E-07 0
vn 1 6.206903E-07 0
vn 1 6.206903E-07 0
vn 1 4.6551767E-07 0
vn 1 3.1034514E-07 0
vn 1 3.1034514E-07 0
vn -0 1 0
vn -0 1 0
vn -0 1 0
vn -0 1 0
vn 0.66678756 0.74524784 0
vn 0.66678756 0.74524784 0
vn 0.66678756 0.74524784 0
vn 0.66678756 0.74524784 0
vn -0 0 -1
vn -0 0 -1
vn -0 0 -1
vn -0 0 -1
vn -0 0 -1
vn -0 0 -1
vn -0 0 -1
vn -0 0 -1
vn -9.292133E-05 -5.9056816E-05 -1
vn -0 0 -1
vn -0 0 -1
vn -0 0 -1
vn -0.000105788364 -0.00026375148 -1
vn -0 0 -1
vn -0 0 -1
vn -8.296624E-05 9.765616E-05 -1
vn -0.0058699506 -0.006862818 -0.99995923
vn -0.006563718 -0.008206313 -0.9999448
vn -0.00014102626 -0.00035160175 -1
vn -0.00014102625 -0.0003516018 -1
vn -0.51218075 -0.6380874 -0.57490474
vn -0.54167944 -0.67476034 -0.5012801
vn -0.616421 -0.7675783 -0.1756379
vn -0.6164209 -0.7675783 -0.17563789
vn -0 0 1
vn -0 0 1
vn -0 0 1
vn -0 0 1
vn -0 0 1
vn -0 0 1
vn -0 0 1
vn -0 0 1
vn 2.8176577E-05 1.8537488E-05 1
vn -0 0 1
vn -0 0 1
vn -0 0 1
vn 3.168749E-05 7.900229E-05 1
vn -0 0 1
vn -0 0 1
vn 2.5456442E-05 -2.7468952E-05 1
vn 0.004923443 0.006112692 0.99996924
vn 4.228461E-05 0.000105422696 1
vn 4.2284606E-05 0.00010542269 1
vn 0.003745463 0.004509179 0.99998283
vn 0.56357336 0.70055807 0.43772525
vn 0.53620476 0.6664157 0.51804894
vn 0.6207192 0.77200735 0.13679317
vn 0.6207192 0.77200735 0.13679315
vn 0.63966054 0.76865757 1.4229762E-06
vn 0.63966054 0.76865757 1.4229762E-06
vn 0.63966054 0.7686576 1.4229763E-06
vn 0.63966054 0.7686576 1.4229761E-06
vn -0.7376917 0.6751377 0
vn -0.7376917 0.6751377 0
vn -0.7376917 0.6751377 0
vn -0.7376917 0.6751377 0
vn 1.3224017E-07 -1 0.0003049718
vn 1.17090586E-07 -1 0
vn 1.17090586E-07 -1 0
vn 1.3224025E-07 -1 0.00030497357
vn -0.00093805935 -0.9997594 0.021915177
vn -0.00067229924 -0.9998723 0.015966699
vn 0.15641707 -0.7741893 0.6133226
vn 0.13524182 -0.8144805 0.56420857
vn 0.16811849 -0.7497884 0.6399637
vn 0.1681185 -0.7497884 0.6399637
vn 0.6667655 -0.7452676 0
vn 0.6667655 -0.7452676 0
vn 0.6667655 -0.7452676 0
vn 0.6667655 -0.7452676 0
vn -0.9992144 0 0.03963054
vn -0.9987286 0.0028759646 0.050328746
vn -0.9992144 0 0.03963054
vn -0.99863523 0.0033569497 0.05211753
vn -0.8642964 0.12552914 0.4870669
vn -0.8857039 0.11482664 0.449826
vn -0.8480422 0.13299045 0.5129697
vn -0.8480422 0.13299046 0.51296973
vn -0.6667655 0.7452676 0
vn -0.6667655 0.7452676 0
vn -0.6667655 0.7452676 0
vn -0.6667655 0.7452676 0
vn -0.18948233 -0.1555128 0.96949077
vn -0.18948233 -0.1555128 0.96949065
vn -0.18948233 -0.15551281 0.96949077
vn -0.18948233 -0.1555128 0.96949077
g mesh_Pik0911_00_TicketGeneral_1_0
f 3/3/3 2/2/2 1/1/1
f 2/2/2 4/4/4 1/1/1
f 5/5/5 4/4/4 2/2/2
f 6/6/6 5/5/5 2/2/2
f 9/9/9 8/8/8 7/7/7
f 10/10/10 9/9/9 7/7/7
f 13/13/13 12/12/12 11/11/11
f 14/14/14 13/13/13 11/11/11
f 17/17/17 16/16/16 15/15/15
f 18/18/18 17/17/17 15/15/15
f 21/21/21 20/20/20 19/19/19
f 22/22/22 21/21/21 19/19/19
f 25/25/25 24/24/24 23/23/23
f 26/26/26 25/25/25 23/23/23
f 29/29/29 28/28/28 27/27/27
f 28/28/28 30/30/30 27/27/27
f 27/27/27 30/30/30 31/31/31
f 32/32/32 27/27/27 31/31/31
f 35/35/35 34/34/34 33/33/33
f 36/36/36 35/35/35 33/33/33
f 39/39/39 38/38/38 37/37/37
f 40/40/40 39/39/39 37/37/37
f 43/43/43 42/42/42 41/41/41
f 42/42/42 44/44/44 41/41/41
f 44/44/44 45/45/45 41/41/41
f 45/45/45 46/46/46 41/41/41
f 45/45/45 47/47/47 46/46/46
f 48/48/48 47/47/47 45/45/45
f 49/49/49 48/48/48 45/45/45
f 48/48/48 49/49/49 50/50/50
f 50/50/50 49/49/49 51/51/51
f 51/51/51 49/49/49 52/52/52
f 49/49/49 53/53/53 52/52/52
f 54/54/54 49/49/49 45/45/45
f 45/45/45 55/55/55 54/54/54
f 54/54/54 56/56/56 49/49/49
f 49/49/49 56/56/56 57/57/57
f 53/53/53 49/49/49 58/58/58
f 58/58/58 49/49/49 57/57/57
f 58/58/58 59/59/59 53/53/53
f 58/58/58 60/60/60 59/59/59
f 58/58/58 57/57/57 61/61/61
f 62/62/62 58/58/58 61/61/61
f 62/62/62 61/61/61 63/63/63
f 64/64/64 62/62/62 63/63/63
f 67/67/67 66/66/66 65/65/65
f 68/68/68 67/67/67 65/65/65
f 68/68/68 65/65/65 69/69/69
f 65/65/65 70/70/70 69/69/69
f 71/71/71 69/69/69 70/70/70
f 71/71/71 72/72/72 69/69/69
f 72/72/72 73/73/73 69/69/69
f 74/74/74 73/73/73 72/72/72
f 75/75/75 73/73/73 74/74/74
f 73/73/73 75/75/75 76/76/76
f 77/77/77 73/73/73 76/76/76
f 69/69/69 73/73/73 78/78/78
f 78/78/78 79/79/79 69/69/69
f 73/73/73 80/80/80 78/78/78
f 81/81/81 73/73/73 77/77/77
f 80/80/80 73/73/73 81/81/81
f 77/77/77 82/82/82 81/81/81
f 82/82/82 83/83/83 81/81/81
f 84/84/84 80/80/80 81/81/81
f 84/84/84 81/81/81 85/85/85
f 86/86/86 84/84/84 85/85/85
f 86/86/86 85/85/85 87/87/87
f 85/85/85 88/88/88 87/87/87
f 91/91/91 90/90/90 89/89/89
f 92/92/92 91/91/91 89/89/89
f 95/95/95 94/94/94 93/93/93
f 96/96/96 95/95/95 93/93/93
f 99/99/99 98/98/98 97/97/97
f 98/98/98 100/100/100 97/97/97
f 97/97/97 100/100/100 101/101/101
f 102/102/102 97/97/97 101/101/101
f 102/102/102 101/101/101 103/103/103
f 104/104/104 102/102/102 103/103/103
f 104/104/104 103/103/103 105/105/105
f 106/106/106 104/104/104 105/105/105
f 109/109/109 108/108/108 107/107/107
f 110/110/110 109/109/109 107/107/107
f 113/113/113 112/112/112 111/111/111
f 112/112/112 114/114/114 111/111/111
f 115/115/115 114/114/114 112/112/112
f 116/116/116 115/115/115 112/112/112
f 116/116/116 117/117/117 115/115/115
f 117/117/117 118/118/118 115/115/115
f 121/121/121 120/120/120 119/119/119
f 122/122/122 121/121/121 119/119/119
f 125/125/125 124/124/124 123/123/123
f 126/126/126 125/125/125 123/123/123
